<?xml version="1.0" encoding="UTF-8"?>
<svg id="Layer_2" data-name="Layer 2" xmlns="http://www.w3.org/2000/svg" viewBox="0 0 513.02 486.25">
  <defs>
    <style>
      .cls-1 {
        fill: #97a5b0;
        stroke-width: 0px;
      }
    </style>
  </defs>
  <g id="Layer_3_copy_3" data-name="Layer 3 copy 3">
    <path class="cls-1" d="M510.38,99.6c0-.06-.03-.12-.04-.17-4.66-23.46-14.51-46.17-30.29-64.14-38.46-43.8-108.4-44.01-156.66-16.08-17.68,10.24-35.7,23.89-45.56,42.47-9.3,17.52-7.73,48.58,13.24,58.01,25.02,11.26,40.15-14.66,43.22-35.4,1.67-11.32.37-21.75,6.22-32.11,5.13-9.06,12.6-16.51,21.71-21.51,39.58-21.78,96.76-1.21,118.96,36.21,11.41,19.25,16.22,42.97,14.8,65.19-1,15.83-5.22,38.08-23.49,43.65-19.76,6.03-14.81-26.1-12.24-35.4,4.06-14.65,3.44-32.42-12.45-39.27-13.23-5.69-25.15,1.1-31.94,12.74-5.63,9.65-6.38,21.63-12.93,30.9-3.37,4.77-7.19,8.31-12.8,5.47-4.74-2.4-6.12-10.11-12.55-6.03-6.54,4.13-7.75,22.85-9.14,29.95-2.52,12.85-4.42,25.84-7.9,38.48-.91,3.29-1.98,6.67-4.23,9.24-2.26,2.57-6,4.13-9.18,2.88-2.96-1.17-4.65-4.46-4.84-7.63-.4-6.94,4.33-12.78,8.35-17.95,8.37-10.78,11.38-24.53,5.41-37.71-7.22-15.97-21.4-12.72-32.34-2.46-11.86,11.15-10.37,27.44-6.79,42.27,1.82,7.52,4.27,14.29,1.97,21.86-1.92,6.35-6.66,12.07-12.68,5.84-4-4.16-3.99-12.34-7.52-17.07-7.29-9.73-15.25-9.85-26.09-10.06-5.01-7.56,8.38-20.55,7.86-29.75-.42-7.38-6.98-19.53-15.93-16.57-9.74,3.24-9.37,16.77-8.6,24.54.32,3.08,7.92,35.72-2.34,31.47-7.46-3.08-9.45-29.93-10.86-37.11-1.21-6.12-2.4-11.73-3.39-17.88-.51-3.2-1.21-6.68-2.67-9.6-2.87-5.78-10.14-9.07-16.08-6.17-18.28,8.88-.62,33.32,2.97,45.9,2.29,8.08,3.92,16.17,6.56,24.2,4.58,13.9,9.98,30,7.89,45.12-3.03,21.78-22.6,13.69-27.97-2.46-1.73-5.22-2.95-11.29-3.78-16.79-1.86-12.33.39-33.08-19.07-25.35-25.88,10.29-34.24,48.52-30.74,73.12.83,5.81,3.65,12.48,7.55,16.94,2.55,2.93,6.14,4.23,7.33,8.17,2.56,8.42-6.41,20.27-15.45,17.47-8.9-2.77-11.31-15.9-12.4-23.75-1.89-13.36-2.13-26.44-1.46-39.97.55-11.14.26-26.36-7.81-34.76-6.2-6.45-14.55-4.12-19.47,2.64-4.15,5.72-3.98,14.37-6.27,21.59-.87,2.74-1.76,5.53-3.39,7.9s-4.15,4.3-7.02,4.53c-5.7.44-9.28-13.2-12.41-17.36-4.46-5.92-10.27-11.15-18.24-9.26-9.94,2.36-17.3,16.61-18.64,25.85-.57,3.97-2.63,10.47-7.44,11.11-5.44.72-8.64-6.81-13.49-8.63-6.73-2.53-13.82-2.6-19.53,2.3-4.09,3.51-6.96,11.15-7.85,16.38-1.11,6.6-.81,25.67,7.8,26.88,9.29,1.31,7.6-14.91,12.79-18.92,11.25-8.67,22.03,19.99,27.57,39,6.74,38.54,16.66,81.25,42.92,109.98.04.04.08.09.12.13,16.16,17.63,36.36,31.93,59.17,39.11,55.6,17.5,115.51-18.61,142.26-67.53,9.81-17.92,18.13-38.95,16.92-59.94-1.14-19.81-18.59-45.54-41.41-42.73-27.23,3.36-26.72,33.37-18.59,52.69,7.4,17.58,12.33,29.9,2.92,48.76-3.97,7.96-10.01,14.74-16.71,20.6-30.02,26.24-68.42,27.11-103.65,11.31-46.86-21.01-58.45-79.48-66.02-125.92-1.54-9.45-6.68-45.26,10.52-45.41,10.28-.09,12.75,20.08,15.11,27.1,1.04,3.15,2.93,9.22,6.41,10.89,5.24,2.52,11.3-2.92,13.32-7.73,1.76-4.15,3.01-53.66,15.21-37.68,3.68,4.82,2.44,15.61,2.73,21.46.32,6.52.48,14.01,1.17,20.55,1.17,11.06,3.81,26.22,12.74,33.78,10.13,8.58,22.94,6.38,31.71-2.78,4.51-4.72,6.87-10.24,8.29-16.54,1.27-5.64-.4-11.3,4.43-14.91,4.41-3.3,10.56-4.42,14.77-8.12,4.13-3.63,5.18-8.34,6.8-13.44,2.96-9.35,3.18-4.01,9.92-1.95,5.16,1.58,10.08-1.37,14.2-4.24,7.94-5.51,12.19-5.55,15.68-15.91,4.84,4.45,5.4,12.13,9.96,16.88,3.31,3.44,8.48,4.82,13.16,3.92,4.69-.9,8.84-3.93,11.52-7.88,3.32-4.88,4.15-12.17-.09-16.27-3.5-3.4-9.01-3.44-13.34-5.67-8.83-4.53-11.37-24.4,2.05-23.4,10.3.77,20.62,16.79,27.25,23.53,16.31,16.6,29.16,32.28,51.98,40.26,21.71,7.6,42.91,8.38,62.45-5.98,7.38-5.42,20.5-20.38,8.49-28.97-9.09-6.49-23.1,6.64-31.59,9.34-12.21,3.89-25.9-.1-37.57-3.48-7.24-2.11-15.42-5.47-21.2-10.41-8.68-7.41-6.07-14.95,6.14-13.92,5.16.44,10.4,2.04,15.41.74,7.03-1.82,11.44-8.82,13.78-15.69,2.33-6.87,3.38-14.29,7.12-20.51,1.07-1.78,2.41-3.48,4.25-4.46,1.83-.97,4.25-1.06,5.88.23,1.89,1.49,2.17,4.24,2.01,6.65-.77,11.64-12.11,18.87-10.46,30.83,1.37,9.96,15.01,6.8,20.85,2.52,8.43-6.15,9.77-15.53,9.36-25.4-1.11-27.38-5.48-60.41,14.7-82.72,5.64-6.23,14.62-10.81,18.3-.14,5.34,15.45-6.79,31.97,3.17,47.17,12.93,19.67,38.42,17.27,52,.72,18.29-22.31,20.84-54.05,15.24-82.36ZM189.07,279.76c-1.22,2.74-3.08,5.81-6.08,5.99-2.02.14-3.92-1.22-4.98-2.94-1.06-1.74-1.44-3.79-1.71-5.8-.98-7.31-2.32-42.04,11.51-39.84,14.69,2.33,4.53,35.25,1.26,42.59ZM336.12,196.33c-1.38,1.06-3.14,1.81-4.81,1.39-3.17-.8-3.91-4.96-3.67-8.24.43-5.77,1.98-11.47,4.51-16.68,2.97-6.11,9.55-6.47,11.21.91.57,2.58.07,5.26-.44,7.83-1.05,5.46-2.41,11.4-6.8,14.79Z"/>
  </g>
</svg>